<mxfile host="app.diagrams.net" modified="2023-05-09T14:25:43.411Z" agent="Mozilla/5.0 (Windows NT 10.0; Win64; x64) AppleWebKit/537.36 (KHTML, like Gecko) Chrome/112.0.0.0 Safari/537.36 Edg/112.0.1722.58" etag="y2OeArzWRxkC_n43dNww" version="21.2.9" type="github">
  <diagram name="第 1 页" id="LMcd3qrLCK4-aWi6AcHE">
    <mxGraphModel dx="528" dy="573" grid="1" gridSize="10" guides="1" tooltips="1" connect="1" arrows="1" fold="1" page="1" pageScale="1" pageWidth="827" pageHeight="1169" math="0" shadow="0">
      <root>
        <mxCell id="0" />
        <mxCell id="1" parent="0" />
        <mxCell id="srA_KymTiUldIgPunRAa-9" value="" style="edgeStyle=orthogonalEdgeStyle;rounded=0;orthogonalLoop=1;jettySize=auto;html=1;" edge="1" parent="1" source="srA_KymTiUldIgPunRAa-2" target="srA_KymTiUldIgPunRAa-5">
          <mxGeometry relative="1" as="geometry" />
        </mxCell>
        <mxCell id="srA_KymTiUldIgPunRAa-2" value="&lt;font style=&quot;font-size: 18px;&quot;&gt;&lt;b&gt;C&lt;/b&gt;&lt;/font&gt;" style="text;html=1;strokeColor=none;fillColor=none;align=center;verticalAlign=middle;whiteSpace=wrap;rounded=0;" vertex="1" parent="1">
          <mxGeometry x="140" y="160" width="60" height="30" as="geometry" />
        </mxCell>
        <mxCell id="srA_KymTiUldIgPunRAa-11" value="" style="edgeStyle=orthogonalEdgeStyle;rounded=0;orthogonalLoop=1;jettySize=auto;html=1;" edge="1" parent="1" source="srA_KymTiUldIgPunRAa-5" target="srA_KymTiUldIgPunRAa-10">
          <mxGeometry relative="1" as="geometry" />
        </mxCell>
        <mxCell id="srA_KymTiUldIgPunRAa-5" value="&lt;font style=&quot;font-size: 18px;&quot;&gt;concat&lt;/font&gt;" style="rounded=0;whiteSpace=wrap;html=1;" vertex="1" parent="1">
          <mxGeometry x="230" y="145" width="120" height="60" as="geometry" />
        </mxCell>
        <mxCell id="srA_KymTiUldIgPunRAa-8" value="" style="edgeStyle=orthogonalEdgeStyle;rounded=0;orthogonalLoop=1;jettySize=auto;html=1;" edge="1" parent="1" source="srA_KymTiUldIgPunRAa-7" target="srA_KymTiUldIgPunRAa-5">
          <mxGeometry relative="1" as="geometry" />
        </mxCell>
        <mxCell id="srA_KymTiUldIgPunRAa-7" value="&lt;font style=&quot;font-size: 18px;&quot;&gt;&lt;b&gt;0&lt;sup&gt;2x3&lt;/sup&gt;&lt;/b&gt;&lt;/font&gt;" style="text;html=1;strokeColor=none;fillColor=none;align=center;verticalAlign=middle;whiteSpace=wrap;rounded=0;" vertex="1" parent="1">
          <mxGeometry x="260" y="80" width="60" height="30" as="geometry" />
        </mxCell>
        <mxCell id="srA_KymTiUldIgPunRAa-14" value="" style="edgeStyle=orthogonalEdgeStyle;rounded=0;orthogonalLoop=1;jettySize=auto;html=1;" edge="1" parent="1" source="srA_KymTiUldIgPunRAa-10" target="srA_KymTiUldIgPunRAa-13">
          <mxGeometry relative="1" as="geometry" />
        </mxCell>
        <mxCell id="srA_KymTiUldIgPunRAa-10" value="&lt;font style=&quot;font-size: 18px;&quot;&gt;matul&lt;/font&gt;" style="rounded=0;whiteSpace=wrap;html=1;" vertex="1" parent="1">
          <mxGeometry x="430" y="145" width="120" height="60" as="geometry" />
        </mxCell>
        <mxCell id="srA_KymTiUldIgPunRAa-15" value="" style="edgeStyle=orthogonalEdgeStyle;rounded=0;orthogonalLoop=1;jettySize=auto;html=1;" edge="1" parent="1" source="srA_KymTiUldIgPunRAa-12" target="srA_KymTiUldIgPunRAa-10">
          <mxGeometry relative="1" as="geometry" />
        </mxCell>
        <mxCell id="srA_KymTiUldIgPunRAa-12" value="&lt;font style=&quot;font-size: 18px;&quot;&gt;inverse_kernel&lt;/font&gt;&lt;img style=&quot;background-color: initial;&quot; src=&quot;file:///C:/Users/%E8%91%A3%E8%8F%81/AppData/Local/Temp/ksohtml14500/wps6.jpg&quot; height=&quot;18&quot; width=&quot;8&quot;&gt;" style="text;html=1;strokeColor=none;fillColor=none;align=center;verticalAlign=middle;whiteSpace=wrap;rounded=0;" vertex="1" parent="1">
          <mxGeometry x="410" y="80" width="160" height="40" as="geometry" />
        </mxCell>
        <mxCell id="srA_KymTiUldIgPunRAa-13" value="&lt;font style=&quot;font-size: 18px;&quot;&gt;matul&lt;/font&gt;" style="rounded=0;whiteSpace=wrap;html=1;" vertex="1" parent="1">
          <mxGeometry x="630" y="145" width="120" height="60" as="geometry" />
        </mxCell>
        <mxCell id="srA_KymTiUldIgPunRAa-16" value="&lt;span style=&quot;font-size: 18px;&quot;&gt;&lt;b&gt;c&lt;br&gt;a&lt;br&gt;w&lt;/b&gt;&lt;br&gt;&lt;/span&gt;" style="text;html=1;strokeColor=none;fillColor=none;align=center;verticalAlign=middle;whiteSpace=wrap;rounded=0;" vertex="1" parent="1">
          <mxGeometry x="570" y="90" width="40" height="100" as="geometry" />
        </mxCell>
        <mxCell id="srA_KymTiUldIgPunRAa-18" value="" style="edgeStyle=orthogonalEdgeStyle;rounded=0;orthogonalLoop=1;jettySize=auto;html=1;" edge="1" parent="1" source="srA_KymTiUldIgPunRAa-17" target="srA_KymTiUldIgPunRAa-13">
          <mxGeometry relative="1" as="geometry" />
        </mxCell>
        <mxCell id="srA_KymTiUldIgPunRAa-17" value="&lt;font style=&quot;font-size: 18px;&quot;&gt;concat&lt;/font&gt;" style="rounded=0;whiteSpace=wrap;html=1;" vertex="1" parent="1">
          <mxGeometry x="630" y="250" width="120" height="60" as="geometry" />
        </mxCell>
        <mxCell id="srA_KymTiUldIgPunRAa-20" style="edgeStyle=orthogonalEdgeStyle;rounded=0;orthogonalLoop=1;jettySize=auto;html=1;exitX=1;exitY=0.5;exitDx=0;exitDy=0;entryX=0;entryY=0.5;entryDx=0;entryDy=0;" edge="1" parent="1" source="srA_KymTiUldIgPunRAa-19" target="srA_KymTiUldIgPunRAa-17">
          <mxGeometry relative="1" as="geometry" />
        </mxCell>
        <mxCell id="srA_KymTiUldIgPunRAa-19" value="&lt;font style=&quot;font-size: 18px;&quot;&gt;control_points&lt;/font&gt;" style="text;html=1;strokeColor=none;fillColor=none;align=center;verticalAlign=middle;whiteSpace=wrap;rounded=0;" vertex="1" parent="1">
          <mxGeometry x="100" y="267.5" width="160" height="25" as="geometry" />
        </mxCell>
        <mxCell id="srA_KymTiUldIgPunRAa-22" style="edgeStyle=orthogonalEdgeStyle;rounded=0;orthogonalLoop=1;jettySize=auto;html=1;exitX=1;exitY=0.5;exitDx=0;exitDy=0;" edge="1" parent="1" source="srA_KymTiUldIgPunRAa-21">
          <mxGeometry relative="1" as="geometry">
            <mxPoint x="650" y="310" as="targetPoint" />
            <Array as="points">
              <mxPoint x="650" y="340" />
              <mxPoint x="650" y="310" />
            </Array>
          </mxGeometry>
        </mxCell>
        <mxCell id="srA_KymTiUldIgPunRAa-21" value="&lt;font style=&quot;font-size: 18px;&quot;&gt;1&lt;/font&gt;" style="text;html=1;strokeColor=none;fillColor=none;align=center;verticalAlign=middle;whiteSpace=wrap;rounded=0;" vertex="1" parent="1">
          <mxGeometry x="540" y="330" width="60" height="20" as="geometry" />
        </mxCell>
        <mxCell id="srA_KymTiUldIgPunRAa-23" value="&lt;font style=&quot;font-size: 18px;&quot;&gt;concat&lt;/font&gt;" style="rounded=0;whiteSpace=wrap;html=1;" vertex="1" parent="1">
          <mxGeometry x="330" y="370" width="120" height="60" as="geometry" />
        </mxCell>
      </root>
    </mxGraphModel>
  </diagram>
</mxfile>
